<svg xmlns="http://www.w3.org/2000/svg" width="31" height="31" viewBox="0 0 31 31" fill="none">
<path d="M2.45 4.63406V7.54264C2.45 19.1506 11.8632 28.5607 23.475 28.5607H26.375C27.5762 28.5607 28.55 27.5873 28.55 26.3864V22.6683C28.55 21.7325 27.9509 20.9016 27.0628 20.6056L22.4471 19.0676C21.5166 18.7575 20.4936 19.1084 19.9496 19.9242L18.8926 21.5092C18.3485 22.325 17.3256 22.6759 16.3951 22.3658L14.1832 21.6288C11.915 20.873 10.1748 19.0339 9.54569 16.728L8.63646 13.3953C8.33273 12.282 8.95192 11.1254 10.047 10.7605L10.9207 10.4693C11.8348 10.1648 12.3914 9.24067 12.233 8.29059L11.5637 4.27661C11.3889 3.2282 10.4816 2.45978 9.41833 2.45978H4.625C3.42378 2.45978 2.45 3.43324 2.45 4.63406ZM1 4.63406C1 2.63269 2.62297 1.01025 4.625 1.01025H9.41833C11.1904 1.01025 12.7027 2.29095 12.994 4.03831L13.6632 8.05229C13.9389 9.70594 12.9702 11.3143 11.3793 11.8445L10.5056 12.1356C10.1405 12.2573 9.93412 12.6428 10.0354 13.0139L10.9446 16.3466C11.4461 18.185 12.8335 19.6511 14.6418 20.2536L16.8536 20.9907C17.1638 21.094 17.5047 20.9771 17.6861 20.7051L18.7431 19.1201C19.6499 17.7604 21.3548 17.1757 22.9056 17.6924L27.5213 19.2305C29.0016 19.7237 30 21.1085 30 22.6683V26.3864C30 28.3878 28.377 30.0103 26.375 30.0103H23.475C11.0624 30.0103 1 19.9512 1 7.54264V4.63406Z" fill="black" stroke="black"/>
</svg>