<svg xmlns="http://www.w3.org/2000/svg" width="18" height="18" viewBox="0 0 18 18" fill="none">
<path fill-rule="evenodd" clip-rule="evenodd" d="M2.55682 0C1.14485 0 0 1.14428 0 2.55611V4.27938C0 11.8572 6.14502 18 13.725 18H15.4432C16.8551 18 18 16.8557 18 15.4439V13.241C18 12.1407 17.2957 11.1639 16.2517 10.816L13.517 9.90477C12.4232 9.54031 11.2207 9.95271 10.5811 10.9118L9.95486 11.8509C9.94977 11.8585 9.94013 11.8618 9.9313 11.8589L8.62084 11.4222C7.67921 11.1085 6.95683 10.345 6.6957 9.38787L6.157 7.41329C6.15419 7.40301 6.15988 7.39217 6.17024 7.38872L6.68789 7.21623C7.82141 6.83851 8.51174 5.69248 8.31528 4.51406L7.91878 2.13587C7.71328 0.903256 6.64652 0 5.39675 0H2.55682ZM1.67727 2.55611C1.67727 2.07071 2.07093 1.67699 2.55682 1.67699H5.39675C5.82682 1.67699 6.19368 1.98779 6.26434 2.41161L6.66083 4.7898C6.72156 5.15403 6.50821 5.50843 6.15757 5.62527L5.63991 5.79776C4.78517 6.08259 4.30172 6.98541 4.53885 7.8546L5.07754 9.82918C5.48628 11.3274 6.61694 12.5222 8.09052 13.0132L9.40098 13.4499C10.1272 13.6919 10.9257 13.418 11.3504 12.7812L11.9766 11.8421C12.1966 11.5123 12.6103 11.3703 12.9867 11.4957L15.7214 12.407C16.0806 12.5267 16.3227 12.8627 16.3227 13.241V15.4439C16.3227 15.9293 15.9291 16.323 15.4432 16.323H13.725C7.0711 16.323 1.67727 10.9308 1.67727 4.27938V2.55611Z" fill="white"/>
</svg>