<svg xmlns="http://www.w3.org/2000/svg" width="31" height="38" viewBox="0 0 31 38" fill="none">
<path fill-rule="evenodd" clip-rule="evenodd" d="M6.71383 6.58397C9.04512 4.30395 12.2057 3.02417 15.5 3.02417C18.7943 3.02417 21.9549 4.30395 24.2862 6.58397C26.6177 8.86412 27.9286 11.9579 27.9286 15.1851C27.9286 20.7502 24.7552 25.7861 21.4486 29.5051C19.8077 31.3506 18.1642 32.8377 16.9307 33.8631C16.3445 34.3503 15.8527 34.732 15.5 34.9968C15.1473 34.732 14.6555 34.3503 14.0693 33.8631C12.8358 32.8377 11.1923 31.3506 9.55138 29.5051C6.24475 25.7861 3.07143 20.7502 3.07143 15.1851C3.07143 11.9579 4.38233 8.86412 6.71383 6.58397ZM14.903 37.0767C14.9034 37.0769 14.9037 37.0771 15.5 36.2538C16.0963 37.0771 16.0966 37.0769 16.097 37.0767C15.7394 37.3215 15.2606 37.3215 14.903 37.0767ZM14.903 37.0767L15.5 36.2538L16.097 37.0767L16.1007 37.074L16.1101 37.0676L16.1431 37.0446C16.1713 37.0249 16.2121 36.9963 16.2643 36.959C16.3687 36.8844 16.5194 36.7752 16.7098 36.6329C17.0905 36.3482 17.6306 35.9309 18.2769 35.3937C19.568 34.3204 21.2905 32.7625 23.0157 30.8221C26.4412 26.9695 30 21.4711 30 15.1851C30 11.4276 28.4738 7.82283 25.7552 5.16406C23.0364 2.50512 19.3476 1.01025 15.5 1.01025C11.6524 1.01025 7.96362 2.50512 5.24477 5.16406C2.52623 7.82283 1 11.4276 1 15.1851C1 21.4711 4.55882 26.9695 7.98434 30.8221C9.70953 32.7625 11.432 34.3204 12.7231 35.3937C13.3694 35.9309 13.9095 36.3482 14.2902 36.6329C14.4806 36.7752 14.6313 36.8844 14.7357 36.959C14.7879 36.9963 14.8287 37.0249 14.8569 37.0446L14.8899 37.0676L14.8993 37.074L14.903 37.0767ZM11.3571 15.1077C11.3571 12.8832 13.212 11.0798 15.5 11.0798C17.788 11.0798 19.6429 12.8832 19.6429 15.1077C19.6429 17.3321 17.788 19.1355 15.5 19.1355C13.212 19.1355 11.3571 17.3321 11.3571 15.1077ZM15.5 9.06592C12.068 9.06592 9.28571 11.7709 9.28571 15.1077C9.28571 18.4444 12.068 21.1494 15.5 21.1494C18.932 21.1494 21.7143 18.4444 21.7143 15.1077C21.7143 11.7709 18.932 9.06592 15.5 9.06592Z" fill="black"/>
<path d="M14.903 37.0767C14.9034 37.0769 14.9037 37.0771 15.5 36.2538M14.903 37.0767C15.2606 37.3215 15.7394 37.3215 16.097 37.0767M14.903 37.0767L15.5 36.2538M14.903 37.0767L14.8993 37.074L14.8899 37.0676L14.8569 37.0446C14.8287 37.0249 14.7879 36.9963 14.7357 36.9591C14.6313 36.8844 14.4806 36.7752 14.2902 36.6329C13.9095 36.3482 13.3694 35.9309 12.7231 35.3937C11.432 34.3204 9.70953 32.7625 7.98434 30.8221C4.55882 26.9695 1 21.4711 1 15.1851C1 11.4276 2.52623 7.82283 5.24477 5.16406C7.96362 2.50512 11.6524 1.01025 15.5 1.01025C19.3476 1.01025 23.0364 2.50512 25.7552 5.16406C28.4738 7.82283 30 11.4276 30 15.1851C30 21.4711 26.4412 26.9695 23.0157 30.8221C21.2905 32.7625 19.568 34.3204 18.2769 35.3937C17.6306 35.9309 17.0905 36.3482 16.7098 36.6329C16.5194 36.7752 16.3687 36.8844 16.2643 36.9591C16.2121 36.9963 16.1713 37.0249 16.1431 37.0446L16.1101 37.0676L16.1007 37.074L16.097 37.0767M15.5 36.2538C16.0963 37.0771 16.0966 37.0769 16.097 37.0767M15.5 36.2538L16.097 37.0767M6.71383 6.58397C9.04512 4.30395 12.2057 3.02417 15.5 3.02417C18.7943 3.02417 21.9549 4.30395 24.2862 6.58397C26.6177 8.86412 27.9286 11.9579 27.9286 15.1851C27.9286 20.7502 24.7552 25.7861 21.4486 29.5051C19.8077 31.3506 18.1642 32.8377 16.9307 33.8631C16.3445 34.3503 15.8527 34.732 15.5 34.9968C15.1473 34.732 14.6555 34.3503 14.0693 33.8631C12.8358 32.8377 11.1923 31.3506 9.55138 29.5051C6.24475 25.7861 3.07143 20.7502 3.07143 15.1851C3.07143 11.9579 4.38233 8.86412 6.71383 6.58397ZM11.3571 15.1077C11.3571 12.8832 13.212 11.0798 15.5 11.0798C17.788 11.0798 19.6429 12.8832 19.6429 15.1077C19.6429 17.3321 17.788 19.1355 15.5 19.1355C13.212 19.1355 11.3571 17.3321 11.3571 15.1077ZM15.5 9.06592C12.068 9.06592 9.28571 11.7709 9.28571 15.1077C9.28571 18.4444 12.068 21.1494 15.5 21.1494C18.932 21.1494 21.7143 18.4444 21.7143 15.1077C21.7143 11.7709 18.932 9.06592 15.5 9.06592Z" stroke="black"/>
</svg>