<svg width="279" height="86" viewBox="0 0 279 86" fill="none" xmlns="http://www.w3.org/2000/svg">
<path fill-rule="evenodd" clip-rule="evenodd" d="M278.972 11.4364L271.457 86.0011C271.457 86.0011 200.264 74.7834 139.486 74.7834C76.0712 74.7834 7.51483 86.0011 7.51483 86.0011L0 11.4364C0 11.4364 68.4245 0.21875 139.486 0.21875C212.129 0.21875 278.972 11.4364 278.972 11.4364ZM265.656 84.8134C265.656 84.8133 197.495 73.8595 139.354 73.8595C78.5765 73.8595 13.0524 84.8133 13.0524 84.8133L6.06495 16.5834C6.06492 16.5834 6.06491 16.5834 6.06491 16.5834L13.0524 84.8134C13.0524 84.8134 78.5764 73.8596 139.354 73.8596C197.495 73.8596 265.656 84.8134 265.656 84.8134Z" fill="#BF1822"/>
</svg>
