<svg width="265" height="266" viewBox="0 0 265 266" fill="none" xmlns="http://www.w3.org/2000/svg">
<path d="M174.4 201.3V192.4C174.4 171.1 190.3 153.3 210.9 150.5" stroke="black" stroke-width="4.2225" stroke-miterlimit="10"/>
<path d="M212.7 129.3C194.7 130.4 178.6 139.1 167.8 152.3C158.8 163.2 153.4 177.2 153.4 192.4V210.3" stroke="black" stroke-width="4.2225" stroke-miterlimit="10"/>
<path d="M132.5 213.1V194.5V192.4C132.5 176.7 136.8 162 144.2 149.5C148.1 142.9 153 136.8 158.5 131.5C171.9 118.8 189.6 110.4 209 108.6" stroke="black" stroke-width="4.2225" stroke-miterlimit="10"/>
<path d="M132.5 189V91.9" stroke="black" stroke-width="4.2225" stroke-miterlimit="10"/>
<path d="M174.5 119.6V64.3" stroke="black" stroke-width="4.2225" stroke-miterlimit="10"/>
<path d="M195.6 110.9V83.2001" stroke="black" stroke-width="4.2225" stroke-miterlimit="10"/>
<path d="M132.5 213C176.848 213 212.8 177.049 212.8 132.7C212.8 88.3516 176.848 52.4 132.5 52.4C88.1515 52.4 52.2 88.3516 52.2 132.7C52.2 177.049 88.1515 213 132.5 213Z" stroke="black" stroke-width="4.2225" stroke-miterlimit="10"/>
<path d="M160.5 117.3C152.3 123.9 142.2 126.4 132.5 125.3C133.5 115.6 138.3 106.3 146.5 99.8C154.7 93.2 164.8 90.7 174.5 91.8C173.5 101.5 168.7 110.8 160.5 117.3Z" stroke="black" stroke-width="4.2225" stroke-miterlimit="10" stroke-linecap="round" stroke-linejoin="round"/>
<path d="M132.5 92C143.435 92 152.3 83.1353 152.3 72.2C152.3 61.2648 143.435 52.4 132.5 52.4C121.565 52.4 112.7 61.2648 112.7 72.2C112.7 83.1353 121.565 92 132.5 92Z" stroke="black" stroke-width="4.2225" stroke-miterlimit="10" stroke-linecap="round" stroke-linejoin="round"/>
<path d="M90.7 201.3V192.4C90.7 171.1 74.8 153.3 54.2 150.5" stroke="black" stroke-width="4.2225" stroke-miterlimit="10"/>
<path d="M52.2999 129.3C70.2999 130.4 86.3999 139.1 97.1999 152.3C106.2 163.2 111.6 177.2 111.6 192.4V210.3" stroke="black" stroke-width="4.2225" stroke-miterlimit="10"/>
<path d="M132.5 213.1V194.5V192.4C132.5 176.7 128.2 162 120.8 149.5C116.9 142.9 112 136.8 106.5 131.5C93.0999 118.8 75.3999 110.4 55.9999 108.6" stroke="black" stroke-width="4.2225" stroke-miterlimit="10"/>
<path d="M90.4999 119.6V64.3" stroke="black" stroke-width="4.2225" stroke-miterlimit="10"/>
<path d="M69.4 110.9V83.2001" stroke="black" stroke-width="4.2225" stroke-miterlimit="10"/>
<path d="M104.5 117.3C112.7 123.9 122.8 126.4 132.5 125.3C131.5 115.6 126.7 106.3 118.5 99.8C110.3 93.2 100.2 90.7 90.4999 91.8C91.5999 101.5 96.2999 110.8 104.5 117.3Z" stroke="black" stroke-width="4.2225" stroke-miterlimit="10" stroke-linecap="round" stroke-linejoin="round"/>
<path d="M132.5 213C176.848 213 212.8 177.049 212.8 132.7C212.8 88.3516 176.848 52.4 132.5 52.4C88.1515 52.4 52.2 88.3516 52.2 132.7C52.2 177.049 88.1515 213 132.5 213Z" stroke="black" stroke-width="4.2225" stroke-miterlimit="10"/>
<path d="M132.5 262.9C204.407 262.9 262.7 204.607 262.7 132.7C262.7 60.7925 204.407 2.5 132.5 2.5C60.5925 2.5 2.29999 60.7925 2.29999 132.7C2.29999 204.607 60.5925 262.9 132.5 262.9Z" stroke="black" stroke-width="4.2225" stroke-miterlimit="10"/>
<path d="M125.5 241.8L125.7 237.1L130.4 237.3L130.2 242L125.5 241.8Z" fill="black"/>
<path d="M109.5 221.2L114.2 222.6L105.5 252.4L90.7 248.1L99.3999 218.3L104.2 219.7L96.7 245.2L102 246.8L109.5 221.2Z" fill="black"/>
<path d="M72.7 239.6L68.5 237.1L84.2 210.3L88.4 212.8L72.7 239.6Z" fill="black"/>
<path d="M47.1 210.5L47.9 209.7C50.1 207.4 52.2 206.6 54.5 207.4C53.3 204.8 54.2 202.4 56.5 200.1L58.3 198.3C61.6 194.9 65.2 194.8 68.7 198.2L74.2 203.5L52.6 225.8L47.3 220.7C43.7 217.1 43.7 213.9 47.1 210.5ZM52.2 219.2L57.9 213.3L56.5 212C55.2 210.7 53.8 210.5 52.1 212.3L50.9 213.5C49.4 215.1 49.2 216.3 50.5 217.5L52.2 219.2ZM60.9 210.1L67.5 203.3L65.5 201.4C64.3 200.3 63.2 200.2 61.6 201.8L59.7 203.7C57.7 205.8 57.7 207.1 59.3 208.6L60.9 210.1Z" fill="black"/>
<path d="M53.1 169.3L49.4 171.3L54.3 180.5L58 178.5L60.2 182.7L52.7 186.7L51.8 185C50.5 184.8 49.3 185.1 47.7 185.8L27.2 195.5L20.8 183.5L44.3 170.9L43.3 169L50.8 165L53.1 169.3ZM45.4 181.7C47.5 180.7 48.6 180.6 49.7 181L46.7 175.4L27.1 185.9L29 189.5L45.4 181.7Z" fill="black"/>
<path d="M25.4 154.7L24.2 148.1L28.6 147.3L29.8 153.9L38.7 152.2L37.1 143.9L41.5 143.1L44 156.2L13.5 162L11 148.9L15.4 148.1L17 156.4L25.4 154.7Z" fill="black"/>
<path d="M41.3 126.7L40.8 131.6L9.89996 128.6L10.4 123.7L23.6 125L24.1 119.5L10.9 118.2L11.4 113.3L42.3 116.3L41.8 121.2L28.6 119.9L28.1 125.4L41.3 126.7Z" fill="black"/>
<path d="M45.2 104.7L16.5 93L18.3 88.5L29.1 92.9L30 90.8C31.8 86.3 35.2 85.1 39.8 87L43.5 88.5C48.1 90.4 49.7 93.6 47.9 98.1L45.2 104.7ZM43.8 96.4C44.4 95 44 93.9 42 93.1L37.7 91.3C35.6 90.5 34.7 91 34.1 92.4L33.2 94.5L42.9 98.5L43.8 96.4Z" fill="black"/>
<path d="M45.2 67L49 69.7L46.3 73.5L42.5 70.8L45.2 67Z" fill="black"/>
<path d="M79.2 58.0999L75.5 61.2999L71.2 57.5999L66.7 61.4999L69.7 66.2999L66.3 69.2L49.7 42.4999L55.1 37.7999L79.2 58.0999ZM64.3 57.8999L67.8999 54.7999L55.8999 44.4999L64.3 57.8999Z" fill="black"/>
<path d="M88.8 52.2L75.9 24L87.6 18.6L89.4 22.6L82.1 25.9L93.2 50.1L88.8 52.2Z" fill="black"/>
<path d="M122.4 18.2L123 22.2C123.8 27.1 121.8 30.1 117 30.9L114.7 31.3L116.5 42.8L111.7 43.6L106.9 12.9L114 11.8C118.8 11 121.6 13.3 122.4 18.2ZM112.4 16.5L114 26.9L116.3 26.5C117.8 26.3 118.6 25.4 118.2 23.2L117.5 18.6C117.2 16.4 116.2 15.8 114.7 16.1L112.4 16.5Z" fill="black"/>
<path d="M140 17.8C140.6 12.9 143.6 10.4 148.3 11C153.1 11.6 155.3 14.8 154.6 19.7L152.5 35.7C151.9 40.6 148.9 43.1 144.2 42.5C139.4 41.9 137.2 38.7 137.9 33.8L140 17.8ZM142.8 34.7C142.5 36.9 143.4 37.9 144.9 38.1C146.4 38.3 147.5 37.6 147.8 35.4L150 18.8C150.3 16.6 149.4 15.6 147.9 15.4C146.4 15.2 145.3 15.9 145 18.1L142.8 34.7Z" fill="black"/>
<path d="M174 31.5999L172.3 35.9999L167.9 34.2999L169.6 29.8999L174 31.5999Z" fill="black"/>
<path d="M182.6 56.2L178.6 53.4L196.4 28L209 36.8L191.2 62.2L187.1 59.4L202.4 37.6L197.9 34.4L182.6 56.2Z" fill="black"/>
<path d="M216.8 63.0999L221 68.2999L217.5 71.0999L213.3 65.8999L206.2 71.5999L211.5 78.2L208 80.9999L199.7 70.5999L223.9 51.2L232.2 61.5999L228.7 64.3999L223.4 57.7999L216.8 63.0999Z" fill="black"/>
<path d="M241.2 95.0999L237.5 96.7C232.9 98.6 229.5 97.4999 227.6 92.9999L226.7 90.8999L216 95.4999L214.1 90.9999L242.7 78.7999L245.5 85.3999C247.3 89.8999 245.8 93.0999 241.2 95.0999ZM240.4 84.9999L230.7 89.0999L231.6 91.2C232.2 92.6 233.2 93.0999 235.2 92.2999L239.5 90.4999C241.5 89.5999 241.9 88.6 241.3 87.2L240.4 84.9999Z" fill="black"/>
<path d="M240.8 117.8L241.6 124.4L237.2 124.9L236.4 118.3L227.4 119.4L228.4 127.8L224 128.3L222.4 115.1L253.2 111.3L254.8 124.5L250.4 125L249.4 116.6L240.8 117.8Z" fill="black"/>
<path d="M244.8 157.7L240.8 157.1C235.9 156.4 233.6 153.6 234.3 148.8L234.6 146.5L223.1 144.8L223.8 140L254.5 144.6L253.4 151.7C252.7 156.5 249.7 158.4 244.8 157.7ZM249.4 148.7L239 147.1L238.7 149.4C238.5 150.9 239 151.9 241.2 152.2L245.8 152.9C248 153.2 248.8 152.5 249 151L249.4 148.7Z" fill="black"/>
<path d="M239.8 174.7C244.3 176.8 245.8 180.4 243.7 184.7C241.7 189 238 190.2 233.5 188.1L218.9 181.3C214.4 179.2 212.9 175.6 215 171.3C217 167 220.7 165.8 225.2 167.9L239.8 174.7ZM222.8 172.2C220.8 171.3 219.6 171.8 219 173.2C218.4 174.6 218.7 175.8 220.7 176.8L235.9 183.9C237.9 184.8 239.1 184.3 239.7 182.9C240.4 181.5 240 180.3 238 179.3L222.8 172.2Z" fill="black"/>
<path d="M205.7 187.9L228.9 208.5L219.8 218.7L216.5 215.8L222.3 209.2L216.4 203.9L214.5 206C211.3 209.6 207.6 209.7 203.9 206.4L201.4 204.2C197.7 200.9 197.3 197.2 200.6 193.6L205.7 187.9ZM203.9 196.6C202.9 197.8 202.8 198.9 204.4 200.4L207.4 203C209.1 204.5 210.2 204.2 211.2 203.1L213.1 201L205.8 194.5L203.9 196.6Z" fill="black"/>
<path d="M187.8 220.5L187.6 217.3L182.6 209.2L186.7 206.6L203 233L198.9 235.6L191.8 224.1L193.5 239L189.4 241.6L187.9 226.3L173 215.1L177.3 212.5L187.8 220.5Z" fill="black"/>
<path d="M146.9 223.4L151.7 222.2L153.9 227.4L159.7 225.9L159.1 220.2L163.4 219.1L166.2 250.4L159.3 252.2L146.9 223.4ZM160.1 230.2L155.5 231.4L161.7 246L160.1 230.2Z" fill="black"/>
</svg>
